<svg width="88" height="87" viewBox="0 0 88 87" fill="none" xmlns="http://www.w3.org/2000/svg">
<g filter="url(#filter0_d_3065_7602)">
<rect x="10.5" y="10" width="67" height="67" rx="33.5" fill="#E4DB00"/>
<path fill-rule="evenodd" clip-rule="evenodd" d="M26.8451 29.0001C25.7183 28.9842 25.7183 30.6825 26.8451 30.6666H30.4099C31.1036 30.6666 31.4334 30.8259 31.6272 30.9904C31.821 31.1549 31.9272 31.3756 31.9901 31.6723L35.6932 49.9942C35.8531 50.7938 36.2715 51.4279 36.8071 51.8104C37.2274 52.1105 37.694 52.2564 38.144 52.3067C37.8482 52.8042 37.6745 53.3815 37.6745 53.9984C37.6745 55.8293 39.1742 57.3289 41.005 57.3289C42.8358 57.3289 44.3387 55.8293 44.3387 53.9984C44.3387 53.3914 44.1706 52.8225 43.883 52.3303H49.7937C49.5066 52.8224 49.3388 53.3915 49.3388 53.9984C49.3388 55.8293 50.8393 57.3289 52.6701 57.3289C54.5009 57.3289 56.0038 55.8293 56.0038 53.9984C56.0038 53.3914 55.8358 52.8225 55.5481 52.3303H55.5725C56.128 52.3303 56.74 52.1929 57.2756 51.8104C57.8113 51.4279 58.2297 50.7938 58.3896 49.9942L60.9503 37.1891C61.0885 36.4976 60.9427 35.7317 60.4596 35.0914C59.9765 34.4512 59.1219 33.9994 58.073 33.9994H55.5213L50.7628 29.2442C50.6037 29.0859 50.3875 28.9985 50.1631 29.0017C49.9463 29.0043 49.7391 29.0913 49.5854 29.2442L47.5235 31.3061C46.5245 29.8828 44.8795 29.0005 43.0929 29.0001C40.2519 28.9994 37.9128 31.2117 37.6981 33.9994H34.1862L33.6199 31.3273C33.5071 30.7947 33.2488 30.1816 32.7053 29.7202C32.1619 29.2589 31.3826 29.0001 30.4099 29.0001H26.8451ZM43.0929 30.6666C44.4336 30.6669 45.6524 31.3786 46.3192 32.5104L44.8302 33.9994H39.3678C39.5735 32.1173 41.1536 30.6661 43.0929 30.6666ZM50.1761 31.0132L53.1624 33.9994H47.1899L50.1761 31.0132ZM34.5272 35.6659H58.073C58.6892 35.6659 58.9548 35.8625 59.13 36.0947C59.3052 36.3269 59.3572 36.6576 59.3164 36.862L58.8892 38.9988H45.176C44.0492 38.9828 44.0492 40.6812 45.176 40.6652H58.5556L56.7557 49.6671C56.6656 50.1174 56.5001 50.3165 56.3065 50.4548C56.1129 50.593 55.8503 50.6639 55.5726 50.6639H38.5102C38.2325 50.6639 37.969 50.593 37.7754 50.4548C37.5818 50.3165 37.4171 50.1174 37.3271 49.6671L35.5272 40.6652H38.5102C39.637 40.6812 39.637 38.9828 38.5102 38.9988H35.1936L34.5272 35.6659ZM41.8431 38.9988C41.3829 38.9988 41.0099 39.3718 41.0099 39.832C41.0099 40.2922 41.3829 40.6652 41.8431 40.6652C42.3033 40.6652 42.6763 40.2922 42.6763 39.832C42.6763 39.3718 42.3033 38.9988 41.8431 38.9988ZM41.005 52.3312C41.9352 52.3312 42.6714 53.0682 42.6714 53.9984C42.6714 54.9286 41.9352 55.6616 41.005 55.6616C40.0748 55.6616 39.341 54.9286 39.341 53.9984C39.341 53.0682 40.0748 52.3312 41.005 52.3312ZM52.6701 52.3312C53.6003 52.3312 54.3366 53.0682 54.3366 53.9984C54.3366 54.9286 53.6003 55.6616 52.6701 55.6616C51.7399 55.6616 51.0061 54.9286 51.0061 53.9984C51.0061 53.0682 51.7399 52.3312 52.6701 52.3312Z" fill="#2B292C"/>
</g>
<defs>
<filter id="filter0_d_3065_7602" x="0.5" y="0" width="87" height="87" filterUnits="userSpaceOnUse" color-interpolation-filters="sRGB">
<feFlood flood-opacity="0" result="BackgroundImageFix"/>
<feColorMatrix in="SourceAlpha" type="matrix" values="0 0 0 0 0 0 0 0 0 0 0 0 0 0 0 0 0 0 127 0" result="hardAlpha"/>
<feOffset/>
<feGaussianBlur stdDeviation="5"/>
<feComposite in2="hardAlpha" operator="out"/>
<feColorMatrix type="matrix" values="0 0 0 0 0.69292 0 0 0 0 0.69292 0 0 0 0 0.69292 0 0 0 0.3 0"/>
<feBlend mode="normal" in2="BackgroundImageFix" result="effect1_dropShadow_3065_7602"/>
<feBlend mode="normal" in="SourceGraphic" in2="effect1_dropShadow_3065_7602" result="shape"/>
</filter>
</defs>
</svg>
