<svg width="20" height="20" viewBox="0 0 20 20" fill="none" xmlns="http://www.w3.org/2000/svg">
<path d="M19.1425 13.7038L14.322 11.5436C14.1035 11.45 13.8652 11.4123 13.6286 11.4341C13.392 11.4558 13.1645 11.5362 12.9668 11.6681C12.9467 11.6809 12.9276 11.6953 12.9097 11.7109L10.3902 13.8538C10.364 13.8681 10.3349 13.8761 10.3052 13.8771C10.2754 13.8782 10.2458 13.8723 10.2188 13.86C8.59931 13.0783 6.92169 11.4109 6.13697 9.8139C6.1239 9.78722 6.11711 9.7579 6.11711 9.72819C6.11711 9.69847 6.1239 9.66916 6.13697 9.64247L8.28705 7.09136C8.30248 7.07248 8.31679 7.05272 8.32991 7.03217C8.4599 6.8337 8.53842 6.60598 8.55837 6.36956C8.57833 6.13315 8.53909 5.89549 8.4442 5.67804L6.29922 0.865619C6.17741 0.581537 5.96675 0.344623 5.69885 0.190437C5.43096 0.0362499 5.12028 -0.0268925 4.81345 0.0104861C3.47996 0.185795 2.25592 0.840657 1.37008 1.8527C0.484245 2.86474 -0.00278345 4.1647 1.19671e-05 5.50967C1.19671e-05 13.4998 6.50025 20 14.4903 20C15.8352 20.0026 17.1351 19.5155 18.1471 18.6297C19.1591 17.7439 19.814 16.52 19.9895 15.1865C20.0268 14.8812 19.9645 14.5719 19.8119 14.3047C19.6593 14.0376 19.4246 13.8268 19.1425 13.7038ZM14.4903 18.7755C7.17578 18.7755 1.22455 12.8242 1.22455 5.50967C1.22114 4.46262 1.59905 3.45014 2.28769 2.66141C2.97633 1.87268 3.92858 1.36165 4.96652 1.2238H4.98999C5.03111 1.22456 5.07104 1.23774 5.10455 1.26159C5.13805 1.28545 5.16357 1.31887 5.17775 1.35747L7.33089 6.16479C7.34317 6.19152 7.34953 6.22059 7.34953 6.25C7.34953 6.27941 7.34317 6.30848 7.33089 6.33521L5.17673 8.89244C5.16066 8.9107 5.14599 8.93014 5.13285 8.95061C4.99806 9.15639 4.91868 9.39349 4.90241 9.63895C4.88614 9.88441 4.93353 10.1299 5.03999 10.3517C5.94513 12.2048 7.81254 14.0579 9.68608 14.9631C9.90915 15.0689 10.1558 15.1152 10.4021 15.0973C10.6484 15.0794 10.8858 14.998 11.0912 14.861C11.1106 14.8478 11.13 14.8335 11.1484 14.8182L13.6668 12.6752C13.6917 12.6619 13.7192 12.654 13.7474 12.6523C13.7755 12.6505 13.8038 12.6549 13.8301 12.665L18.6517 14.8253C18.6911 14.8421 18.7242 14.8708 18.7464 14.9074C18.7685 14.9441 18.7786 14.9867 18.7752 15.0294C18.6381 16.0678 18.1275 17.0208 17.3389 17.7102C16.5504 18.3996 15.5378 18.7783 14.4903 18.7755Z" fill="#2B292C"/>
</svg>
