<svg width="88" height="87" viewBox="0 0 88 87" fill="none" xmlns="http://www.w3.org/2000/svg">
<g filter="url(#filter0_d_3065_5747)">
<rect x="10.5" y="10" width="67" height="67" rx="33.5" fill="#E4DB00"/>
<path d="M35.3319 28C35.1109 28 34.8989 28.0878 34.7427 28.2441C34.5864 28.4004 34.4986 28.6123 34.4985 28.8334V31.3342H30.3342C30.1132 31.3343 29.9013 31.4221 29.745 31.5783C29.5887 31.7346 29.5009 31.9466 29.5009 32.1676V35.4986H27.8334C27.3731 35.4986 27 35.8717 27 36.3319V54.6673C27 56.0379 28.1303 57.1682 29.5009 57.1682H30.4449C30.8183 58.5989 32.1222 59.6658 33.6652 59.6658C34.6588 59.6658 35.5534 59.2221 36.1661 58.5256C36.7788 59.2219 37.6736 59.6658 38.6669 59.6658C40.2099 59.6658 41.5155 58.5989 41.8897 57.1682H52.5263C52.9004 58.599 54.2069 59.6658 55.7499 59.6658C57.2928 59.6658 58.5993 58.599 58.9734 57.1682H61.1666C61.6269 57.1681 62 56.795 62 56.3348V44.6679C62.0006 44.4464 61.913 44.2338 61.7567 44.077L56.7557 39.0761C56.5989 38.9197 56.3864 38.8322 56.1649 38.8328H51.1672V37.9994C51.1672 36.6288 50.037 35.4986 48.6664 35.4986H47.8322V31.3342C47.8326 31.2246 47.8114 31.116 47.7698 31.0147C47.7282 30.9133 47.667 30.8211 47.5897 30.7434L45.0888 28.2425C45.0111 28.1652 44.9189 28.104 44.8175 28.0624C44.7162 28.0208 44.6076 27.9996 44.498 28H35.3319ZM36.1661 29.6667H44.1537L46.1655 31.6785V35.4986H44.498V33.8318C44.4981 33.7223 44.4766 33.6139 44.4347 33.5127C44.3929 33.4115 44.3315 33.3195 44.2541 33.2421C44.1768 33.1646 44.0849 33.1031 43.9837 33.0612C43.8825 33.0193 43.7741 32.9977 43.6646 32.9977H39.5003V32.1676C39.5003 31.9466 39.4125 31.7346 39.2562 31.5783C39.0999 31.4221 38.8879 31.3343 38.6669 31.3342H36.1661V29.6667ZM31.1643 32.9977H37.8328V35.4986H31.1643V32.9977ZM39.5003 34.6652H42.8345V35.4986H39.5003V34.6652ZM28.6667 37.1661H48.6664C49.1424 37.1661 49.4997 37.5233 49.4997 37.9994V55.5006H41.8897C41.5155 54.0692 40.2099 53.0006 38.6669 53.0006C37.6735 53.0006 36.7788 53.4452 36.1661 54.1424C35.5534 53.4449 34.6588 53.0006 33.6652 53.0006C32.1222 53.0006 30.8183 54.0692 30.4449 55.5006H29.5009C29.0248 55.5006 28.6667 55.1434 28.6667 54.6673V37.1661ZM51.1672 40.5003H55.8207L60.3325 45.0121V55.5006H58.9734C58.5993 54.0692 57.2928 53.0006 55.7499 53.0006C54.2069 53.0006 52.9004 54.0692 52.5263 55.5006H51.1672V40.5003ZM33.6652 54.6673C34.5956 54.6673 35.3319 55.4044 35.3319 56.3348C35.3319 57.2652 34.5956 57.9983 33.6652 57.9983C32.7348 57.9983 31.9977 57.2652 31.9977 56.3348C31.9977 55.4044 32.7348 54.6673 33.6652 54.6673ZM38.6669 54.6673C39.5973 54.6673 40.3336 55.4044 40.3336 56.3348C40.3336 57.2652 39.5973 57.9983 38.6669 57.9983C37.7366 57.9983 36.9994 57.2652 36.9994 56.3348C36.9994 55.4044 37.7366 54.6673 38.6669 54.6673ZM55.7499 54.6673C56.6802 54.6673 57.4174 55.4044 57.4174 56.3348C57.4174 57.2652 56.6802 57.9983 55.7499 57.9983C54.8195 57.9983 54.0823 57.2652 54.0823 56.3348C54.0823 55.4044 54.8195 54.6673 55.7499 54.6673Z" fill="#2B292C"/>
<path d="M53.6695 42.168C53.56 42.168 53.4516 42.1895 53.3505 42.2314C53.2494 42.2733 53.1575 42.3347 53.0801 42.4121C53.0026 42.4895 52.9412 42.5814 52.8994 42.6825C52.8575 42.7836 52.8359 42.8921 52.8359 43.0015V47.9998C52.8359 48.1093 52.8575 48.2177 52.8994 48.3188C52.9412 48.42 53.0026 48.5119 53.08 48.5893C53.1575 48.6667 53.2493 48.728 53.3505 48.7699C53.4516 48.8118 53.56 48.8334 53.6695 48.8334H57.8342C57.9437 48.8334 58.0521 48.8118 58.1532 48.7699C58.2544 48.728 58.3463 48.6667 58.4237 48.5893C58.5011 48.5119 58.5625 48.42 58.6043 48.3188C58.6462 48.2177 58.6678 48.1093 58.6678 47.9998V45.9174C58.6681 45.8079 58.6468 45.6993 58.6051 45.598C58.5634 45.4967 58.5021 45.4045 58.4248 45.3269L55.5089 42.411C55.4312 42.3336 55.3391 42.2723 55.2378 42.2306C55.1364 42.1889 55.0279 42.1677 54.9183 42.168H53.6695ZM54.5031 43.8351H54.5738L57.0006 46.2619V47.1662H54.503L54.5031 43.8351Z" fill="#2B292C"/>
<path d="M35.3336 40.5C35.1125 40.5 34.9005 40.5878 34.7441 40.7441C34.5878 40.9005 34.5 41.1125 34.5 41.3336C34.5 41.5546 34.5878 41.7666 34.7441 41.923C34.9005 42.0793 35.1125 42.1671 35.3336 42.1671H42.002C42.2231 42.1671 42.4351 42.0793 42.5914 41.923C42.7478 41.7666 42.8356 41.5546 42.8356 41.3336C42.8356 41.1125 42.7478 40.9005 42.5914 40.7441C42.4351 40.5878 42.2231 40.5 42.002 40.5H35.3336Z" fill="#2B292C"/>
<path d="M38.6633 43.8334C38.5499 43.8268 38.4364 43.8435 38.3297 43.8823C38.223 43.9211 38.1254 43.9813 38.0428 44.0592C37.9602 44.1371 37.8944 44.2311 37.8494 44.3353C37.8044 44.4396 37.7812 44.5519 37.7812 44.6655C37.7812 44.779 37.8044 44.8913 37.8494 44.9956C37.8944 45.0998 37.9602 45.1938 38.0428 45.2717C38.1254 45.3496 38.223 45.4098 38.3297 45.4487C38.4364 45.4875 38.5499 45.5041 38.6633 45.4975H45.3286C45.442 45.5041 45.5555 45.4875 45.6622 45.4487C45.7689 45.4098 45.8665 45.3496 45.9491 45.2717C46.0317 45.1938 46.0975 45.0998 46.1425 44.9956C46.1875 44.8913 46.2107 44.779 46.2107 44.6655C46.2107 44.5519 46.1875 44.4396 46.1425 44.3353C46.0975 44.2311 46.0317 44.1371 45.9491 44.0592C45.8665 43.9813 45.7689 43.9211 45.6622 43.8823C45.5555 43.8435 45.442 43.8268 45.3286 43.8334H38.6633Z" fill="#2B292C"/>
<path d="M33.6617 47.166C33.4406 47.166 33.2286 47.2538 33.0723 47.4102C32.9159 47.5665 32.8281 47.7785 32.8281 47.9996C32.8281 48.2206 32.9159 48.4327 33.0723 48.589C33.2286 48.7453 33.4406 48.8331 33.6617 48.8331H41.9973C42.2183 48.8331 42.4303 48.7453 42.5867 48.589C42.743 48.4327 42.8308 48.2206 42.8308 47.9996C42.8308 47.7785 42.743 47.5665 42.5867 47.4102C42.4303 47.2538 42.2183 47.166 41.9973 47.166H33.6617Z" fill="#2B292C"/>
<path d="M36.9948 44.6654C36.9948 44.7748 36.9733 44.8832 36.9314 44.9843C36.8895 45.0854 36.8281 45.1773 36.7507 45.2547C36.6734 45.332 36.5815 45.3934 36.4804 45.4353C36.3793 45.4772 36.2709 45.4988 36.1615 45.4988C36.052 45.4988 35.9437 45.4772 35.8426 45.4353C35.7415 45.3934 35.6496 45.332 35.5722 45.2547C35.4948 45.1773 35.4334 45.0854 35.3916 44.9843C35.3497 44.8832 35.3281 44.7748 35.3281 44.6654C35.3281 44.4444 35.4159 44.2324 35.5722 44.0761C35.7285 43.9198 35.9405 43.832 36.1615 43.832C36.3825 43.832 36.5945 43.9198 36.7507 44.0761C36.907 44.2324 36.9948 44.4444 36.9948 44.6654Z" fill="#2B292C"/>
</g>
<defs>
<filter id="filter0_d_3065_5747" x="0.5" y="0" width="87" height="87" filterUnits="userSpaceOnUse" color-interpolation-filters="sRGB">
<feFlood flood-opacity="0" result="BackgroundImageFix"/>
<feColorMatrix in="SourceAlpha" type="matrix" values="0 0 0 0 0 0 0 0 0 0 0 0 0 0 0 0 0 0 127 0" result="hardAlpha"/>
<feOffset/>
<feGaussianBlur stdDeviation="5"/>
<feComposite in2="hardAlpha" operator="out"/>
<feColorMatrix type="matrix" values="0 0 0 0 0.69292 0 0 0 0 0.69292 0 0 0 0 0.69292 0 0 0 0.3 0"/>
<feBlend mode="normal" in2="BackgroundImageFix" result="effect1_dropShadow_3065_5747"/>
<feBlend mode="normal" in="SourceGraphic" in2="effect1_dropShadow_3065_5747" result="shape"/>
</filter>
</defs>
</svg>
