<svg width="15" height="20" viewBox="0 0 15 20" fill="none" xmlns="http://www.w3.org/2000/svg">
<path d="M7.3328 20L6.88155 19.5068C6.59952 19.2329 0 11.6712 0 7.12329C0 3.17808 3.27156 0 7.3328 0C11.394 0 14.6656 3.17808 14.6656 7.12329C14.6656 11.6712 8.06608 19.2329 7.78404 19.5616L7.3328 20ZM7.3328 1.09589C3.89202 1.09589 1.12812 3.78082 1.12812 7.12329C1.12812 10.6301 5.86624 16.5479 7.3328 18.3014C8.79936 16.5479 13.5375 10.6301 13.5375 7.12329C13.5375 3.78082 10.7736 1.09589 7.3328 1.09589Z" fill="#2B292C"/>
<path d="M7.33203 9.86227C5.75265 9.86227 4.51172 8.65679 4.51172 7.12254C4.51172 5.58829 5.75265 4.38281 7.33203 4.38281C8.9114 4.38281 10.1523 5.58829 10.1523 7.12254C10.1523 8.65679 8.9114 9.86227 7.33203 9.86227ZM7.33203 5.4787C6.37312 5.4787 5.63984 6.19103 5.63984 7.12254C5.63984 8.05405 6.37312 8.76637 7.33203 8.76637C8.29093 8.76637 9.02421 8.05405 9.02421 7.12254C9.02421 6.19103 8.29093 5.4787 7.33203 5.4787Z" fill="#2B292C"/>
</svg>
